<svg xmlns="http://www.w3.org/2000/svg" width="512" height="512" xmlns:v="https://vecta.io/nano"><defs><filter id="A" x="-.67" y="-.012" width="2.341" height="1.024" color-interpolation-filters="sRGB"><feGaussianBlur stdDeviation="1.117"/></filter><filter id="B" x="-.019" y="-.037" width="1.038" height="1.074" color-interpolation-filters="sRGB"><feGaussianBlur stdDeviation="4.009"/></filter></defs><circle cx="256" cy="256" r="255" fill="#333"/><path d="M266.887 56.066c-5.052 0-8.933.979-11.643 2.939s-4.394 5.465-5.053 10.514l7.688.809c.439-3.676 1.355-6.2 2.746-7.572 1.391-1.421 3.333-2.133 5.822-2.133 2.563 0 4.54.564 5.932 1.691s2.086 3.112 2.086 5.955c0 4.019-1.795 7.695-5.383 11.027l-9.115 9.557c-4.174 4.411-6.884 7.598-8.129 9.559-1.172 1.96-1.756 4.19-1.756 6.689v3.529h32.84v-4.705h-26.359l19.77-21.246c4.54-4.901 6.811-9.657 6.811-14.264 0-4.656-1.466-7.866-4.395-9.631-2.856-1.813-6.809-2.719-11.861-2.719zm-34.158 1.102l-13.4 3.162v3.381h9.445v44.92h8.787V57.168zm110.936 20.844l-13.4 3.162v3.381h9.445v44.92h8.787V78.012zm-189.572 4.531l-13.4 3.162v3.381h9.445v44.92h8.787V82.543zm25.811 0l-13.398 3.162v3.381h9.445v44.92h8.787V82.543zm233.672 55.99c-5.052 0-8.933.979-11.643 2.939s-4.394 5.465-5.053 10.514l7.689.809c.439-3.676 1.355-6.2 2.746-7.572 1.391-1.421 3.331-2.133 5.82-2.133 2.563 0 4.54.564 5.932 1.691s2.086 3.112 2.086 5.955c0 4.019-1.793 7.695-5.381 11.027l-9.117 9.557c-4.174 4.411-6.882 7.598-8.127 9.559-1.172 1.96-1.758 4.19-1.758 6.689v3.529h32.842v-4.705H403.25l19.77-21.246c4.54-4.901 6.811-9.657 6.811-14.264 0-4.656-1.464-7.866-4.393-9.631-2.856-1.813-6.811-2.719-11.863-2.719zm-293.859 7.25c-5.492 0-9.738 1.2-12.74 3.602-2.929 2.353-4.393 6.641-4.393 12.865v20.732c0 6.225 1.464 10.538 4.393 12.939 3.002 2.353 7.248 3.529 12.74 3.529 5.565 0 9.813-1.177 12.742-3.529 3.002-2.402 4.502-6.715 4.502-12.939V162.25c0-6.225-1.5-10.513-4.502-12.865-2.929-2.402-7.177-3.602-12.742-3.602zm-34.268 1.102l-13.4 3.162v3.381h9.445v44.92h8.787v-51.463zm34.379 3.676c5.638 0 8.457 3.53 8.457 10.588v22.938c0 7.058-2.819 10.586-8.457 10.586-2.709 0-4.833-.76-6.371-2.279-1.464-1.519-2.197-4.288-2.197-8.307V161.15c0-4.019.733-6.789 2.197-8.309 1.538-1.519 3.662-2.279 6.371-2.279zm312.5 75.877c-5.052 0-8.933.979-11.643 2.939s-4.394 5.465-5.053 10.514l7.799.809c.366-3.676 1.244-6.2 2.635-7.572 1.464-1.421 3.478-2.133 6.041-2.133 5.199 0 7.799 2.892 7.799 8.676v2.205c0 3.186-.733 5.44-2.197 6.764-1.464 1.274-3.478 1.961-6.041 2.059h-5.271v4.559h5.162c3.002 0 5.273.686 6.811 2.059 1.611 1.323 2.416 3.873 2.416 7.646v2.057c0 5.538-3.002 8.309-9.006 8.309-2.636 0-4.65-.638-6.041-1.912-1.318-1.323-2.197-3.822-2.637-7.498l-7.799.734c.586 5.048 2.234 8.553 4.943 10.514s6.662 2.941 11.861 2.941c5.272 0 9.482-1.08 12.631-3.236 3.222-2.157 4.834-5.881 4.834-11.174 0-6.96-2.528-11.444-7.58-13.453 4.247-1.96 6.371-5.735 6.371-11.322s-1.427-9.387-4.283-11.396c-2.782-2.059-6.7-3.086-11.752-3.086zm-352.943 5.438c-5.492 0-9.776 1.126-12.852 3.381-3.002 2.255-4.502 6.347-4.502 12.277 0 5.881 1.427 9.951 4.283 12.205 2.929 2.255 6.627 3.381 11.094 3.381 4.54 0 8.017-.907 10.434-2.721v9.559c0 4.117-.769 6.959-2.307 8.527-1.464 1.519-3.589 2.279-6.371 2.279-2.709 0-4.759-.638-6.15-1.912-1.391-1.323-2.379-3.822-2.965-7.498l-7.689.734c.732 5.048 2.491 8.553 5.273 10.514s6.772 2.941 11.971 2.941c5.272 0 9.374-1.202 12.303-3.604 3.002-2.402 4.502-6.812 4.502-13.232v-21.1c0-5.979-1.464-10.097-4.393-12.352s-7.139-3.381-12.631-3.381zm-.33 4.557c5.858 0 8.787 3.383 8.787 10.146v2.426c-.073 3.578-.878 6.077-2.416 7.498-1.538 1.372-3.626 2.059-6.262 2.059-5.858 0-8.787-3.381-8.787-10.145v-1.838c0-6.764 2.893-10.146 8.678-10.146zm329.375 79.012l-18.451 36.611v2.795h24.604v12.057h8.676V354.85h4.504v-4.705h-4.504v-34.701zm-301.879 2.523c-5.126 0-9.081.979-11.863 2.939-2.709 1.911-4.064 5.416-4.064 10.514 0 6.666 2.636 10.832 7.908 12.498-6.297 1.568-9.445 6.052-9.445 13.453 0 5.391 1.502 9.117 4.504 11.176s7.323 3.088 12.961 3.088 9.957-1.029 12.959-3.088c3.075-2.059 4.613-5.784 4.613-11.176 0-7.254-3.184-11.738-9.555-13.453 5.419-1.617 8.127-5.783 8.127-12.498 0-5.097-1.391-8.602-4.174-10.514-2.782-1.96-6.772-2.939-11.971-2.939zm308.031 1.594v30.584h-15.598zm-308.031 2.963c2.49 0 4.393.589 5.711 1.766s1.977 3.357 1.977 6.543v2.646c0 3.186-.659 5.367-1.977 6.543s-3.221 1.764-5.711 1.764c-2.416 0-4.284-.587-5.602-1.764s-1.979-3.357-1.979-6.543v-2.646c0-3.186.66-5.367 1.979-6.543s3.185-1.766 5.602-1.766zm0 23.746c2.856 0 5.052.686 6.59 2.059 1.538 1.323 2.307 3.725 2.307 7.205v2.279c0 3.48-.769 5.907-2.307 7.279-1.538 1.323-3.734 1.984-6.59 1.984-2.782 0-4.943-.661-6.48-1.984-1.538-1.372-2.307-3.799-2.307-7.279v-2.279c0-3.48.769-5.882 2.307-7.205 1.538-1.372 3.698-2.059 6.48-2.059zm227.18 32.609v26.908h13.838c2.856 0 5.016.661 6.48 1.984 1.464 1.274 2.197 3.577 2.197 6.91v1.619c0 3.921-.769 6.641-2.307 8.16-1.464 1.47-3.514 2.205-6.15 2.205-2.563 0-4.504-.638-5.822-1.912s-2.195-3.75-2.635-7.426l-7.689.662c.586 4.999 2.234 8.504 4.943 10.514 2.709 1.96 6.59 2.941 11.643 2.941s9.042-1.153 11.971-3.457c3.002-2.353 4.504-6.395 4.504-12.129 0-5.783-1.464-9.657-4.393-11.617-2.929-2.009-7.177-3.014-12.742-3.014h-5.82v-17.645h21.637v-4.705zm-177.988 1.813v4.705h23.285l-18.014 46.758h8.896l17.793-48.67v-2.793zm104.576 21.555c-4.979 0-8.97 1.225-11.973 3.676-3.002 2.402-4.502 6.787-4.502 13.158v21.1c0 5.979 1.464 10.097 4.393 12.352 3.002 2.255 7.25 3.383 12.742 3.383s9.738-1.128 12.74-3.383 4.504-6.322 4.504-12.203c0-5.93-1.429-10.023-4.285-12.277s-6.516-3.383-10.982-3.383-7.946.907-10.436 2.721v-9.559c0-4.117.733-6.934 2.197-8.453 1.464-1.568 3.442-2.354 5.932-2.354 2.563 0 4.466.613 5.711 1.838 1.318 1.225 2.123 3.431 2.416 6.617l8.018-1.324c-.586-4.46-2.232-7.546-4.941-9.262-2.636-1.764-6.481-2.646-11.533-2.646zm.879 26.98c5.785 0 8.678 3.381 8.678 10.145v1.838c0 6.764-2.893 10.146-8.678 10.146s-8.678-3.383-8.678-10.146v-2.426c.073-6.372 2.966-9.557 8.678-9.557zM248 24v16h16V24zm-15.152 2.16l-1.988.209 1.463 13.924 1.99-.209zm46.305 0l-1.465 13.924 1.99.209 1.463-13.924zm-70.201 3.68l-1.957.416 2.91 13.695 1.957-.418zm94.098 0l-2.91 13.693 1.957.416 2.91-13.693zm-117.48 6.156l-1.902.619 4.326 13.314 1.902-.619zm140.863 0l-4.326 13.316 1.902.617 4.326-13.314zm-163.475 8.568l-1.826.813 5.693 12.791 1.828-.814zm186.086 0l-5.695 12.789 1.828.814 5.693-12.791zm-202.115 6.518l-13.855 8 8 13.857 13.855-8zm218.145 0l-8 13.857 13.855 8 8-13.857zM121.029 68.529l-1.617 1.176 8.229 11.326 1.619-1.176zm269.941 0l-8.23 11.326 1.619 1.176 8.229-11.326zM102.174 83.664l-1.486 1.338 9.369 10.406 1.484-1.34zm307.652 0l-9.367 10.404 1.486 1.338 9.367-10.404zM85.002 100.688l-1.338 1.486 10.404 9.367 1.338-1.486zm341.996 0l-10.406 9.369 1.34 1.484 10.404-9.367zM69.705 119.412l-1.176 1.617 11.326 8.23 1.176-1.619zm372.59 0l-11.326 8.229 1.176 1.619 11.326-8.23zm-383.213 13.66l-8 13.855 13.857 8 8-13.855zm393.836 0l-13.857 8 8 13.855 13.857-8zM45.377 161.131l-.812 1.826 12.789 5.695.814-1.828zm421.246 0l-12.791 5.693.814 1.828 12.789-5.695zM36.615 183.666l-.619 1.902 13.316 4.326.617-1.902zm438.77 0l-13.314 4.326.619 1.902 13.314-4.326zM30.256 206.994l-.416 1.957 13.693 2.91.416-1.957zm451.488 0l-13.695 2.91.418 1.957 13.693-2.91zM26.369 230.859l-.209 1.988 13.924 1.465.209-1.99zm459.262 0l-13.924 1.463.209 1.99 13.924-1.465zM24 248v16h16v-16zm448 0v16h16v-16zM40.084 277.688l-13.924 1.465.209 1.988 13.924-1.463zm431.832 0l-.209 1.99 13.924 1.463.209-1.988zM43.533 300.139l-13.693 2.91.416 1.957 13.695-2.91zm424.934 0l-.416 1.957 13.693 2.91.416-1.957zM49.311 322.105l-13.314 4.326.619 1.902 13.314-4.326zm413.377 0l-.617 1.902 13.314 4.326.619-1.902zM57.354 343.348l-12.789 5.695.813 1.826 12.791-5.693zm397.293 0l-.814 1.828 12.791 5.693.813-1.826zM64.939 357.072l-13.857 8 8 13.855 13.857-8zm382.121 0l-8 13.855 13.857 8 8-13.855zM79.855 382.74l-11.326 8.23 1.176 1.617 11.326-8.229zm352.289 0l-1.176 1.619 11.326 8.229 1.176-1.617zM94.068 400.459l-10.404 9.367 1.338 1.486 10.406-9.369zm323.863 0l-1.338 1.486 10.404 9.367 1.338-1.486zm-15.988 16.133l-1.484 1.34 9.367 10.404 1.486-1.338zm-291.889.002l-9.367 10.404 1.486 1.338 9.367-10.404zm17.586 14.375l-8.229 11.326 1.617 1.176 8.23-11.326zm256.719 0l-1.619 1.176 8.23 11.326 1.617-1.176zm-243.287 8.092l-8 13.857 13.855 8 8-13.857zm229.855 0l-13.855 8 8 13.857 13.855-8zm-204.104 14.771l-5.693 12.791 1.826.813 5.695-12.789zm178.352 0l-1.828.814 5.695 12.789 1.826-.812zm-157.184 8.238l-4.326 13.314 1.902.619 4.326-13.316zm136.016 0l-1.902.619 4.326 13.314 1.902-.619zm-21.912 5.979l-1.957.418 2.91 13.693 1.957-.416zm-92.191.002l-2.91 13.693 1.957.416 2.91-13.693zm22.418 3.656l-1.463 13.924 1.988.209 1.465-13.924zm47.355 0l-1.99.209 1.465 13.924 1.988-.209zM248 472v16h16v-16z" fill="#e6e6e6"/><path style="mix-blend-mode:darken" d="M 256,4 A 252,252 0 0 0 4,256 252,252 0 0 0 4.6152344,264.60938 252,252 0 0 1 256,21.21875 252,252 0 0 1 507.67383,260.54883 252,252 0 0 0 508,256 252,252 0 0 0 256,4 Z" transform="rotate(337.607 256 256)" filter="url(#B)"/><g stroke="#fff" stroke-linejoin="round"><path d="M256 0a256 256 0 1 0 0 512 256 256 0 1 0 0-512zm0 7.25c137.372 0 248.75 111.378 248.75 248.75S393.372 504.75 256 504.75 7.25 393.372 7.25 256 118.628 7.25 256 7.25zm0 1.5C119.439 8.75 8.75 119.439 8.75 256S119.439 503.25 256 503.25 503.25 392.561 503.25 256 392.561 8.75 256 8.75zm0 2.902a244.348 244.348 0 1 1 0 488.695 244.348 244.348 0 0 1 0-488.695z" stroke-width=".2"/><circle cx="256" cy="256" r="240.695" fill="none" stroke-width="2" stroke-opacity=".442"/></g><circle cx="256" cy="256" r="11.359" fill="#e6e6e6"/><path style="mix-blend-mode:darken" d="M255 88v184l-1 4v36h4v-36l-1-4V88z" fill="#020202" filter="url(#A)" opacity=".617"/><g fill="#e6e6e6"><path d="M251 104v196h10V104z"/><path d="M252 52v248h8V52z"/></g><circle cx="256" cy="256" r="6.5"/><path d="M255 88v184l-1 4v36h4v-36l-1-4V88z" fill="#ad0f19"/><circle cx="256" cy="256" r="5.5" fill="#e6e6e6"/></svg>