<svg xmlns="http://www.w3.org/2000/svg" xmlns:xlink="http://www.w3.org/1999/xlink" height="512" width="512" xmlns:v="https://vecta.io/nano"><defs><linearGradient id="A" x1="213.565" y1="348.36" x2="278.057" y2="45.156" gradientUnits="userSpaceOnUse"><stop offset="0" stop-color="#fff" stop-opacity="0"/><stop offset=".784" stop-color="#919191"/><stop offset="1" stop-color="#fff" stop-opacity="0"/></linearGradient><filter id="B" x="-.273" y="-.015" width="1.546" height="1.029" color-interpolation-filters="sRGB"><feGaussianBlur stdDeviation="1.156"/></filter><filter id="C" x="-.024" y="-.036" width="1.048" height="1.072" color-interpolation-filters="sRGB"><feGaussianBlur stdDeviation="4.594"/></filter><path id="D" d="M256 56c-.73 0-1.318.588-1.318 1.318v20.844A6 6 0 0 0 250 84a6 6 0 0 0 4.682 5.838v188.844c0 .73.588 1.318 1.318 1.318s1.318-.588 1.318-1.318V89.838a6 6 0 0 0 0-11.689v-20.83c0-.73-.588-1.318-1.318-1.318z"/></defs><circle cx="256" cy="256" r="256" fill="#333"/><circle style="mix-blend-mode:darken" cx="256" cy="256" r="256" fill="url(#radialGradient1979)"/><path style="mix-blend-mode:darken" d="M256 23.709A232.29 232.29 0 0 0 23.709 256a232.29 232.29 0 0 0 12.012 72.42 232.29 232.29 0 0 1-6.885-53.836A232.29 232.29 0 0 1 261.127 42.293c100.901.029 190.245 65.193 221.098 161.262C457.828 98.284 364.061 23.741 256 23.709z" transform="rotate(353.706 256 256)" opacity=".697" filter="url(#C)"/><g fill-rule="evenodd"><path d="M256 44a4 4 0 1 0 0 8 4 4 0 1 0 0-8zm-22.057 1.156c-.034 0-.069.002-.104.006-.551.058-.949.547-.891 1.098l.627 5.967a1 1 0 1 0 1.99-.209l-.627-5.967c-.054-.517-.488-.897-.996-.895zm44.113 0c-.508-.002-.942.378-.996.895l-.627 5.967a1 1 0 0 0 .891 1.1c.551.058 1.042-.338 1.1-.889l.627-5.969c.058-.551-.34-1.04-.891-1.098l-.104-.006zm-65.932 3.455c-.067.001-.135.007-.203.021-.542.115-.885.644-.77 1.186l1.248 5.869c.115.542.644.885 1.186.77s.885-.644.77-1.186l-1.246-5.869c-.101-.474-.519-.795-.984-.791zm87.75 0c-.466-.004-.884.317-.984.791l-1.246 5.869c-.115.542.228 1.07.77 1.186s1.07-.228 1.186-.77l1.248-5.869c.115-.542-.228-1.07-.77-1.186-.068-.014-.137-.021-.203-.021zm-109.09 5.715c-.099.001-.198.019-.297.051a1 1 0 0 0-.643 1.26l1.855 5.705a1 1 0 1 0 1.902-.617l-1.855-5.707a1 1 0 0 0-.963-.691zm130.43 0a1 1 0 0 0-.963.691l-1.855 5.707a1 1 0 1 0 1.902.617l1.855-5.705a1 1 0 0 0-.643-1.26c-.099-.032-.198-.049-.297-.051zM170.16 62.242c-.13.003-.262.03-.389.086-.506.225-.731.814-.506 1.32l2.439 5.482c.225.506.814.731 1.32.506a1 1 0 0 0 .508-1.32l-2.441-5.48c-.169-.38-.542-.602-.932-.594zm171.68 0c-.39-.008-.763.214-.932.594l-2.441 5.48a1 1 0 0 0 .508 1.32c.506.225 1.095 0 1.32-.506l2.439-5.482c.225-.506 0-1.095-.506-1.32-.127-.056-.259-.083-.389-.086zm-100.008 5.367c-.732 1.481-1.979 3.008-3.74 4.582s-3.819 2.915-6.172 4.021v4.068c1.309-.483 2.784-1.21 4.42-2.176 1.652-.966 2.983-1.932 3.996-2.898v26.814h4.209V67.609zm24.873 0c-3.257 0-5.851.85-7.783 2.549-1.933 1.683-3.048 4.137-3.344 7.363l4.324.445c.016-2.151.632-3.835 1.848-5.051s2.835-1.822 4.861-1.822c1.917 0 3.468.575 4.652 1.729 1.2 1.138 1.801 2.541 1.801 4.209 0 1.59-.656 3.28-1.965 5.072-1.309 1.777-3.826 4.193-7.551 7.248-2.4 1.964-4.238 3.693-5.516 5.189-1.262 1.496-2.183 3.016-2.76 4.559a7.44 7.44 0 0 0-.49 2.922h22.652v-4.045h-16.809c.468-.764 1.06-1.52 1.777-2.268.717-.764 2.339-2.205 4.863-4.324 3.023-2.556 5.181-4.566 6.475-6.031 1.309-1.465 2.244-2.861 2.805-4.186s.842-2.672.842-4.043c0-2.696-.958-4.956-2.875-6.779s-4.52-2.736-7.809-2.736zm-114.516 4.262a4 4 0 0 0-3.654 5.996 4 4 0 1 0 6.93-4 4 4 0 0 0-3.275-1.996zm207.621 0A4 4 0 0 0 358 79.33a4 4 0 1 0 4-6.928 4 4 0 0 0-2.189-.531zM131.943 84.297a1 1 0 0 0-.555.191c-.448.326-.546.948-.221 1.396l3.527 4.855c.326.448.948.546 1.396.221s.546-.948.221-1.396l-3.525-4.855c-.204-.28-.523-.423-.844-.412zm248.113 0c-.321-.011-.64.132-.844.412l-3.525 4.855c-.326.448-.227 1.071.221 1.396s1.071.227 1.396-.221l3.527-4.855c.326-.448.227-1.071-.221-1.396-.168-.122-.362-.185-.555-.191zm-31.953 6.736c-.732 1.481-1.979 3.008-3.74 4.582s-3.819 2.915-6.172 4.021v4.068c1.309-.483 2.782-1.21 4.418-2.176 1.652-.966 2.985-1.932 3.998-2.898v26.814h4.207V91.033zM159.92 94.088c-.732 1.481-1.979 3.008-3.74 4.582s-3.819 2.915-6.172 4.021v4.068c1.309-.483 2.782-1.21 4.418-2.176 1.652-.966 2.985-1.932 3.998-2.898V128.5h4.207V94.088zm23.072 0c-.732 1.481-1.979 3.008-3.74 4.582s-3.819 2.915-6.172 4.021v4.068c1.309-.483 2.782-1.21 4.418-2.176 1.652-.966 2.985-1.932 3.998-2.898V128.5h4.209V94.088zm-68.223 4.109c-.224.01-.445.094-.625.256a1 1 0 0 0-.074 1.412l4.016 4.459a1 1 0 0 0 1.486-1.338l-4.016-4.459c-.209-.232-.5-.343-.787-.33zm282.365 0a1 1 0 0 0-.691.33l-4.016 4.459a1 1 0 0 0 1.486 1.338l4.016-4.459a1 1 0 0 0-.074-1.412c-.206-.185-.465-.269-.721-.256zM99.24 113.813a1 1 0 0 0-.713 1.744l4.459 4.016a1 1 0 0 0 1.338-1.486l-4.459-4.016c-.18-.162-.401-.248-.625-.258zm313.52.002c-.224.01-.445.094-.625.256l-4.459 4.016a1 1 0 0 0 1.338 1.486l4.459-4.016a1 1 0 0 0 .074-1.412c-.209-.232-.5-.343-.787-.33zM85.332 130.977c-.321-.011-.64.132-.844.412a1 1 0 0 0 .221 1.398l4.855 3.525c.448.326 1.071.227 1.396-.221s.227-1.071-.221-1.396l-4.855-3.527c-.168-.122-.36-.185-.553-.191zm341.336 0a1 1 0 0 0-.553.191l-4.855 3.527c-.448.326-.546.948-.221 1.396s.948.546 1.396.221l4.855-3.525a1 1 0 0 0 .221-1.398c-.204-.28-.523-.423-.844-.412zM75.676 148.004a4 4 0 0 0-1.809 7.461 4 4 0 1 0 4-6.93 4 4 0 0 0-2.191-.531zm360.648 0A4 4 0 0 0 432.67 154a4 4 0 0 0 6.928-4 4 4 0 0 0-3.273-1.996zm-25.605 6.168c-3.257 0-5.851.85-7.783 2.549-1.933 1.683-3.048 4.137-3.344 7.363l4.324.445c.016-2.151.632-3.835 1.848-5.051s2.837-1.822 4.863-1.822c1.917 0 3.466.575 4.65 1.729 1.2 1.138 1.801 2.541 1.801 4.209 0 1.59-.654 3.28-1.963 5.072-1.309 1.777-3.826 4.193-7.551 7.248-2.4 1.964-4.24 3.693-5.518 5.189-1.262 1.496-2.181 3.016-2.758 4.559-.358.935-.523 1.909-.492 2.922h22.652v-4.045h-16.807c.468-.764 1.058-1.52 1.775-2.268.717-.764 2.339-2.205 4.863-4.324 3.023-2.556 5.181-4.566 6.475-6.031 1.309-1.465 2.244-2.861 2.805-4.186s.842-2.672.842-4.043c0-2.696-.958-4.956-2.875-6.779s-4.52-2.736-7.809-2.736zm-313.281 6.373c-.732 1.481-1.979 3.008-3.74 4.582s-3.819 2.915-6.172 4.021v4.068c1.309-.483 2.782-1.21 4.418-2.176 1.652-.966 2.985-1.932 3.998-2.898v26.814h4.207v-34.412zm27.363 0c-3.418 0-6.259.671-8.523 2.012-2.243 1.34-3.94 3.249-5.094 5.727-1.132 2.462-1.697 5.719-1.697 9.771 0 6.436 1.549 11.082 4.646 13.934 2.585 2.369 6.14 3.553 10.668 3.553 3.439 0 6.281-.669 8.523-2.01 2.264-1.356 3.962-3.266 5.094-5.729 1.132-2.478 1.697-5.727 1.697-9.748 0-3.397-.352-6.093-1.057-8.088-.705-2.01-1.677-3.709-2.916-5.096-1.239-1.403-2.808-2.471-4.709-3.203-1.901-.748-4.112-1.123-6.633-1.123zm-.072 3.484c3.053 0 5.598.927 7.633 2.781 5.421 4.587 5.259 17.41 0 22.465-2.035 1.87-4.556 2.807-7.561 2.807s-5.534-.929-7.594-2.783c-5.207-4.791-5.012-17.609.324-22.814 1.793-1.636 4.193-2.455 7.197-2.455zm-61.469 5.148c-.39-.008-.763.214-.932.594a1 1 0 0 0 .508 1.32l5.48 2.441a1 1 0 0 0 1.32-.508c.225-.506 0-1.095-.506-1.32l-5.482-2.439c-.127-.056-.259-.085-.389-.088zm385.48 0c-.13.003-.262.032-.389.088l-5.482 2.439c-.506.225-.731.814-.506 1.32a1 1 0 0 0 1.32.508l5.48-2.441a1 1 0 0 0 .508-1.32c-.169-.38-.542-.602-.932-.594zM55.338 189.797c-.427-.006-.822.263-.961.691-.171.527.114 1.089.641 1.26l5.707 1.855a1 1 0 1 0 .617-1.902l-5.705-1.855c-.099-.032-.2-.048-.299-.049zm401.324 0c-.098.001-.2.017-.299.049l-5.705 1.855a1 1 0 1 0 .617 1.902l5.707-1.855c.527-.171.812-.733.641-1.26-.139-.428-.534-.697-.961-.691zM49.617 211.131c-.466-.004-.884.317-.984.791a1 1 0 0 0 .77 1.188l5.869 1.246c.542.115 1.07-.228 1.186-.77s-.228-1.07-.77-1.186l-5.869-1.248c-.068-.014-.135-.021-.201-.022zm412.766 0c-.067.001-.133.007-.201.022l-5.869 1.248c-.542.115-.885.644-.77 1.186s.644.885 1.186.77l5.869-1.246a1 1 0 0 0 .77-1.187c-.101-.474-.519-.795-.984-.791zM46.158 232.945c-.508-.002-.942.378-.996.895-.058.551.338 1.042.889 1.1l5.967.627a1 1 0 0 0 .209-1.99l-5.967-.627c-.034-.004-.068-.004-.102-.004zm419.684 0c-.034 0-.067 0-.102.004l-5.969.629c-.551.058-.947.547-.889 1.098a1 1 0 0 0 1.1.891l5.967-.627c.551-.058.947-.549.889-1.1-.054-.517-.488-.897-.996-.895zm-388.287 7.791c-3.086 0-5.658 1.06-7.715 3.18-2.042 2.12-3.062 4.917-3.062 8.393 0 3.366.982 6.078 2.945 8.135a9.57 9.57 0 0 0 7.201 3.086c1.699 0 3.271-.412 4.721-1.238 1.465-.842 2.619-1.933 3.461-3.273l.023.842a21.12 21.12 0 0 1-.631 5.143c-.421 1.683-.943 3.024-1.566 4.021-.623.982-1.426 1.769-2.408 2.361-.966.592-2.097.889-3.391.889-1.512 0-2.751-.43-3.717-1.287s-1.62-2.235-1.963-4.137l-4.045.373c.343 2.696 1.364 4.793 3.063 6.289 1.699 1.481 3.89 2.221 6.57 2.221 2.525 0 4.722-.677 6.592-2.033 1.886-1.356 3.303-3.327 4.254-5.914.951-2.603 1.426-6.095 1.426-10.475 0-4.208-.483-7.418-1.449-9.631-.951-2.229-2.352-3.943-4.207-5.143a10.93 10.93 0 0 0-6.102-1.801zm357.186 0c-2.712 0-4.979.779-6.803 2.338-1.823 1.543-2.992 3.726-3.506 6.547l4.207.748c.312-2.057 1.015-3.6 2.105-4.629s2.453-1.543 4.09-1.543c1.652 0 3.001.507 4.045 1.52s1.566 2.291 1.566 3.834c0 1.948-.717 3.389-2.15 4.324s-3.048 1.402-4.84 1.402c-.171 0-.397-.016-.678-.047l-.467 3.693c1.184-.312 2.174-.467 2.969-.467 1.948 0 3.552.63 4.814 1.893 1.262 1.247 1.895 2.837 1.895 4.77 0 2.026-.685 3.724-2.057 5.096-1.356 1.371-3.025 2.059-5.004 2.059-1.668 0-3.085-.522-4.254-1.566-1.153-1.06-1.972-2.782-2.455-5.166l-4.207.561c.281 2.852 1.409 5.175 3.389 6.967 1.995 1.792 4.496 2.688 7.504 2.688 3.335 0 6.094-1.037 8.275-3.109 2.182-2.088 3.273-4.629 3.273-7.621 0-2.213-.562-4.051-1.684-5.516-1.122-1.481-2.697-2.456-4.723-2.924 1.558-.717 2.736-1.683 3.531-2.898s1.191-2.562 1.191-4.043c0-1.558-.42-3.033-1.262-4.42-.826-1.387-2.026-2.477-3.6-3.271-1.574-.81-3.298-1.217-5.168-1.217zm-356.672 3.484c1.808 0 3.351.709 4.629 2.127 1.294 1.418 1.941 3.334 1.941 5.75s-.632 4.31-1.895 5.682c-1.247 1.356-2.845 2.033-4.793 2.033-1.933 0-3.56-.677-4.885-2.033-1.309-1.371-1.965-3.148-1.965-5.33 0-2.431.695-4.41 2.082-5.937s3.015-2.291 4.885-2.291zM48 252a4 4 0 1 0 0 8 4 4 0 1 0 0-8zm416 0a4 4 0 1 0 0 8 4 4 0 1 0 0-8zM52.121 276.428a.94.94 0 0 0-.104.006l-5.967.627c-.551.058-.947.549-.889 1.1s.547.949 1.098.891l5.969-.627c.551-.058.947-.549.889-1.1a1 1 0 0 0-.996-.896zm407.758 0a1 1 0 0 0-.996.896 1 1 0 0 0 .891 1.1l5.967.627c.551.058 1.04-.34 1.098-.891s-.338-1.042-.889-1.1l-5.967-.627c-.034-.004-.07-.006-.104-.006zM55.475 297.621a1.03 1.03 0 0 0-.203.023l-5.869 1.246a1 1 0 0 0-.77 1.188c.115.542.644.885 1.186.77l5.869-1.248c.542-.115.885-.644.77-1.186-.101-.474-.517-.797-.982-.793zm401.051 0c-.466-.004-.882.319-.982.793-.115.542.228 1.07.77 1.186l5.869 1.248c.542.115 1.07-.228 1.186-.77a1 1 0 0 0-.77-1.187l-5.869-1.246a1.02 1.02 0 0 0-.203-.023zM61.021 318.348a.99.99 0 0 0-.297.049l-5.707 1.855c-.527.171-.812.733-.641 1.26a1 1 0 0 0 1.26.643l5.705-1.855a1 1 0 0 0-.32-1.951zm389.957 0a1 1 0 0 0-.32 1.951l5.705 1.855a1 1 0 0 0 1.26-.643c.171-.527-.114-1.089-.641-1.26l-5.707-1.855a1 1 0 0 0-.297-.049zm-40.018 6.037l-15.639 22.209v3.857h14.867v8.205h4.207v-8.205h4.629v-3.857h-4.629v-22.209zm-303.687 1.896c-2.977 0-5.36.85-7.152 2.549s-2.689 3.796-2.689 6.289c0 1.652.422 3.069 1.264 4.254s2.135 2.095 3.881 2.734c-2.088.545-3.702 1.574-4.84 3.086-1.122 1.496-1.684 3.359-1.684 5.588 0 2.992 1.037 5.493 3.109 7.504 2.073 1.995 4.8 2.992 8.182 2.992s6.109-.997 8.182-2.992 3.109-4.457 3.109-7.387c0-2.12-.554-3.943-1.66-5.471-1.091-1.527-2.687-2.635-4.791-3.32 1.699-.639 2.961-1.542 3.787-2.711.842-1.184 1.262-2.571 1.262-4.16 0-2.494-.911-4.606-2.734-6.336-1.823-1.745-4.232-2.619-7.225-2.619zm.047 3.461c1.59 0 2.915.53 3.975 1.59 1.075 1.044 1.613 2.338 1.613 3.881a5.08 5.08 0 0 1-1.566 3.764c-1.029 1.013-2.354 1.52-3.975 1.52-1.668 0-3.022-.514-4.066-1.543s-1.566-2.354-1.566-3.975c0-1.434.53-2.665 1.59-3.693s2.391-1.543 3.996-1.543zm302.869 1.398v15.453h-10.73zm-341.484 7.24a1.01 1.01 0 0 0-.389.086l-5.48 2.441a1 1 0 0 0-.508 1.32c.225.506.814.731 1.32.506l5.482-2.439c.506-.225.731-.814.506-1.32-.169-.38-.542-.602-.932-.594zm374.59 0c-.39-.008-.763.214-.932.594-.225.506 0 1.095.506 1.32l5.482 2.439c.506.225 1.095 0 1.32-.506a1 1 0 0 0-.508-1.32l-5.48-2.441c-.127-.056-.259-.083-.389-.086zm-336.045 5.551c2.026 0 3.71.662 5.051 1.986 1.356 1.325 2.033 3.001 2.033 5.027 0 1.995-.654 3.638-1.963 4.932s-2.97 1.941-4.98 1.941a7.49 7.49 0 0 1-3.623-.912c-1.122-.623-1.972-1.497-2.549-2.619-.561-1.122-.842-2.282-.842-3.482 0-1.964.648-3.601 1.941-4.91 1.309-1.309 2.952-1.963 4.932-1.963zm-31.193 12.072A4 4 0 0 0 72.402 362a4 4 0 1 0 6.928-4 4 4 0 0 0-3.273-1.996zm359.887 0a4 4 0 0 0-1.811 7.461 4 4 0 1 0 4-6.93 4 4 0 0 0-2.189-.531zM90.117 375.496a1 1 0 0 0-.553.191l-4.855 3.525a1 1 0 0 0-.221 1.398c.326.448.948.546 1.396.221l4.855-3.527c.448-.326.546-.948.221-1.396-.204-.28-.523-.423-.844-.412zm331.67 0a1 1 0 0 0-.748.412c-.326.448-.227 1.071.221 1.396l4.855 3.527c.448.326 1.071.227 1.396-.221a1 1 0 0 0-.221-1.398l-4.855-3.525c-.196-.142-.425-.205-.648-.191zm-261.459 12.475v4.043h16.783c-2.135 2.431-4.153 5.423-6.055 8.977a51.43 51.43 0 0 0-4.348 11.035c-1.013 3.818-1.543 7.075-1.59 9.771h4.326c.234-3.413.77-6.554 1.611-9.422 1.169-4.068 2.822-8.026 4.957-11.875 2.151-3.849 4.316-6.936 6.498-9.258v-3.271zm176.492.023l-3.318 17.602 3.951.516c.623-.982 1.479-1.777 2.57-2.385 1.091-.623 2.314-.936 3.67-.936 2.182 0 3.943.693 5.283 2.08 1.356 1.387 2.035 3.282 2.035 5.682 0 2.525-.703 4.551-2.105 6.078s-3.117 2.291-5.143 2.291c-1.683 0-3.124-.538-4.324-1.613-1.184-1.091-1.94-2.713-2.268-4.863l-4.418.375c.281 2.883 1.402 5.198 3.365 6.943 1.979 1.745 4.528 2.617 7.645 2.617 3.803 0 6.803-1.386 9-4.16 1.808-2.26 2.713-4.942 2.713-8.043 0-3.257-1.029-5.921-3.086-7.994s-4.582-3.109-7.574-3.109c-2.26 0-4.419.717-6.477 2.15l1.848-9.211h13.676v-4.02zm-233.209 4.178c-.224.01-.445.094-.625.256l-4.459 4.016a1 1 0 0 0 1.338 1.486l4.459-4.016a1 1 0 0 0 .074-1.412c-.209-.232-.5-.343-.787-.33zm304.682 0a1 1 0 0 0-.617 1.742l4.459 4.016a1 1 0 0 0 1.338-1.486l-4.459-4.016c-.206-.185-.465-.269-.721-.256zm-289.422 15.172c-.288-.012-.577.1-.785.332l-4.016 4.459a1 1 0 0 0 1.486 1.338l4.016-4.459a1 1 0 0 0-.701-1.67zm274.258 0c-.224.01-.447.096-.627.258a1 1 0 0 0-.074 1.412l4.016 4.459a1 1 0 0 0 1.486-1.338l-4.016-4.459c-.209-.232-.498-.345-.785-.332zm-136.656.408c-3.616 0-6.492 1.31-8.627 3.928-2.447 3.008-3.67 7.824-3.67 14.447 0 5.922 1.107 10.177 3.32 12.764 2.213 2.571 5.072 3.857 8.578 3.857 2.057 0 3.897-.491 5.518-1.473s2.891-2.391 3.811-4.23c.935-1.855 1.402-3.857 1.402-6.008 0-3.273-.99-5.939-2.969-7.996-1.964-2.073-4.347-3.109-7.152-3.109-1.605 0-3.141.375-4.605 1.123s-2.704 1.893-3.717 3.436c.031-3.429.428-6.069 1.191-7.924s1.808-3.266 3.133-4.232c1.013-.748 2.189-1.121 3.529-1.121 1.668 0 3.071.599 4.209 1.799.686.748 1.216 1.95 1.59 3.602l4.184-.328c-.343-2.665-1.379-4.754-3.109-6.266-1.714-1.512-3.919-2.268-6.615-2.268zm-120.934 13.096c-.321-.011-.64.132-.844.412l-3.527 4.855c-.326.448-.227 1.071.221 1.396a1 1 0 0 0 1.398-.221l3.525-4.855c.326-.448.227-1.071-.221-1.396-.168-.122-.36-.185-.553-.191zm240.922 0a1 1 0 0 0-.553.191c-.448.326-.546.948-.221 1.396l3.525 4.855a1 1 0 0 0 1.398.221c.448-.326.546-.948.221-1.396l-3.527-4.855c-.204-.28-.523-.423-.844-.412zm-120.619 2.801c1.917 0 3.505.687 4.768 2.059 1.262 1.356 1.895 3.217 1.895 5.586 0 2.462-.64 4.41-1.918 5.844s-2.805 2.152-4.582 2.152c-1.216 0-2.376-.344-3.482-1.029-1.107-.701-1.97-1.714-2.594-3.039a9.86 9.86 0 0 1-.912-4.16c0-2.213.662-3.998 1.986-5.354 1.325-1.371 2.939-2.059 4.84-2.059zm-104.031 8.49a4 4 0 0 0-1.811 7.459 4 4 0 0 0 4-6.928 4 4 0 0 0-2.189-.531zm208.379 0a4 4 0 0 0-3.654 5.994 4 4 0 1 0 6.93-4 4 4 0 0 0-3.275-1.994zm-187.553 10.137c-.39-.008-.763.214-.932.594l-2.439 5.482c-.225.506 0 1.095.506 1.32a1 1 0 0 0 1.32-.508l2.441-5.48a1 1 0 0 0-.508-1.32c-.127-.056-.259-.085-.389-.088zm166.727 0c-.13.003-.262.032-.389.088a1 1 0 0 0-.508 1.32l2.441 5.48a1 1 0 0 0 1.32.508c.506-.225.731-.814.506-1.32l-2.439-5.482c-.169-.38-.542-.602-.932-.594zm-146.699 7.691a1 1 0 0 0-.963.691l-1.855 5.705a1 1 0 0 0 .643 1.26c.527.171 1.089-.114 1.26-.641l1.855-5.707a1 1 0 0 0-.939-1.309zm126.672 0a.99.99 0 0 0-.297.049 1 1 0 0 0-.643 1.26l1.855 5.707c.171.527.733.812 1.26.641a1 1 0 0 0 .643-1.26l-1.855-5.705a1 1 0 0 0-.963-.691zm-105.951 5.553a1 1 0 0 0-.984.793l-1.248 5.869c-.115.542.228 1.07.77 1.186a1 1 0 0 0 1.188-.77l1.246-5.869c.115-.542-.228-1.07-.77-1.186a1 1 0 0 0-.201-.023zm85.23 0c-.067.001-.133.009-.201.023-.542.115-.885.644-.77 1.186l1.246 5.869a1 1 0 0 0 1.188.77c.542-.115.885-.644.77-1.186l-1.248-5.869a1 1 0 0 0-.984-.793zm-64.041 3.357a1 1 0 0 0-.998.895l-.627 5.969c-.058.551.34 1.04.891 1.098s1.042-.338 1.1-.889l.627-5.967a1 1 0 0 0-.891-1.1.87.87 0 0 0-.102-.006zm42.852 0c-.034 0-.067.002-.102.006a1 1 0 0 0-.891 1.1l.627 5.967c.058.551.549.947 1.1.889s.949-.547.891-1.098l-.627-5.969a1 1 0 0 0-.998-.895zM256 460a4 4 0 1 0 0 8 4 4 0 1 0 0-8z" fill="#e6e6e6" paint-order="stroke markers fill"/><path d="M74.981 74.981a256 256 0 1 0 362.039 362.039A256 256 0 1 0 74.981 74.981zm16.913 16.913a232.081 232.081 0 1 1 328.214 328.214A232.081 232.081 0 0 1 91.893 91.893z" fill="url(#A)" stroke="#4d4d4d" paint-order="normal"/><use xlink:href="#D" style="mix-blend-mode:darken" stroke="#fff" paint-order="stroke markers fill" filter="url(#B)" opacity=".759"/><g fill="#e6e6e6"><path d="M256 112c-1.939 0-3.5 1.68-3.5 3.065v161.461c0 1.385 1.561 3.474 3.5 3.474s3.5-2.089 3.5-3.474V115.065c0-1.385-1.561-3.065-3.5-3.065z" paint-order="stroke markers fill"/><path d="M256 56c-1.385 0-2.5 1.115-2.5 2.5v219c0 1.385 1.115 2.5 2.5 2.5s2.5-1.115 2.5-2.5v-219c0-1.385-1.115-2.5-2.5-2.5z" paint-order="stroke markers fill"/></g><use xlink:href="#D" fill="#c10000" paint-order="stroke markers fill"/></g><circle cx="256" cy="256" r="8" fill="#e6e6e6"/></svg>