<svg xmlns="http://www.w3.org/2000/svg" xmlns:xlink="http://www.w3.org/1999/xlink" width="512" height="512" xmlns:v="https://vecta.io/nano"><style><![CDATA[.B{color-interpolation-filters:sRGB}.C{fill:#e6e6e6}.D{stroke-linejoin:round}.E{stroke-opacity:.442}]]></style><defs><filter id="A" x="-.056" y="-.065" width="1.112" height="1.131" class="B"><feGaussianBlur stdDeviation="9.768"/></filter><linearGradient id="B" x1="85.186" y1="424.559" x2="434.064" y2="98.316" gradientUnits="userSpaceOnUse"><stop offset="0" stop-color="#272929"/><stop offset=".379" stop-color="#272929"/><stop offset=".5" stop-color="#5b5b5b"/><stop offset=".696" stop-color="#272929"/><stop offset="1" stop-color="#303030"/></linearGradient><filter id="C" x="-.38" y="-.02" width="1.76" height="1.041" class="B"><feGaussianBlur stdDeviation="2.032"/></filter><filter id="D" x="-.098" y="-.12" width="1.197" height="1.24" class="B"><feGaussianBlur stdDeviation=".385"/></filter><path id="E" d="M254.75 56v193.725a6.414 6.414 0 0 0-5.164 6.275 6.414 6.414 0 0 0 5.164 6.275V296h2.5v-33.725a6.414 6.414 0 0 0 5.164-6.275 6.414 6.414 0 0 0-5.164-6.275V56z"/></defs><circle cx="256" cy="256" r="250" fill="#2b2b2b"/><path d="M266.982 78.119c-3.068 0-5.427.565-7.072 1.697s-2.668 3.156-3.068 6.072l4.67.469c.267-2.123.823-3.582 1.668-4.375.845-.821 2.023-1.23 3.535-1.23 1.556 0 2.757.325 3.602.977s1.268 1.797 1.268 3.439c0 2.321-1.089 4.444-3.268 6.369l-5.537 5.521c-2.535 2.548-4.18 4.387-4.936 5.52-.712 1.132-1.068 2.421-1.068 3.865v2.037h19.945v-2.717h-16.01l12.008-12.273c2.757-2.831 4.135-5.577 4.135-8.238 0-2.689-.889-4.543-2.668-5.562-1.734-1.047-4.135-1.57-7.203-1.57zm-24.105.637l-8.137 1.826v1.953h5.736v25.945h5.336V78.756h-2.936zm94.291 21.75l-8.139 1.826v1.953h5.736v25.945h5.336v-29.725h-2.934zm-172.449 3.625l-8.137 1.826v1.953h5.736v25.945h5.336v-29.725h-2.936zm23.262 0l-8.139 1.826v1.953h5.736v25.945h5.338v-29.725h-2.936zm210.348 53.736c-3.068 0-5.425.565-7.07 1.697s-2.668 3.156-3.068 6.072l4.67.469c.267-2.123.821-3.582 1.666-4.375.845-.821 2.023-1.23 3.535-1.23 1.556 0 2.759.325 3.604.977s1.268 1.797 1.268 3.439c0 2.321-1.091 4.444-3.27 6.369l-5.537 5.521c-2.535 2.548-4.18 4.387-4.936 5.52-.712 1.132-1.066 2.421-1.066 3.865v2.037h19.943v-2.717h-16.008l12.006-12.273c2.757-2.831 4.137-5.577 4.137-8.238 0-2.69-.891-4.543-2.67-5.562-1.734-1.047-4.135-1.57-7.203-1.57zm-265.947 3.398c-3.335 0-5.913.693-7.736 2.08-1.779 1.359-2.668 3.836-2.668 7.432v11.975c0 3.595.889 6.087 2.668 7.475 1.823 1.359 4.401 2.039 7.736 2.039 3.38 0 5.96-.68 7.738-2.039 1.823-1.387 2.734-3.879 2.734-7.475v-11.975c0-3.595-.911-6.073-2.734-7.432-1.779-1.387-4.359-2.08-7.738-2.08zm-23.264.637l-8.139 1.826v1.953h5.738v25.945h5.336v-29.725h-2.936zm23.332 2.123c3.424 0 5.135 2.039 5.135 6.115v13.248c0 4.077-1.711 6.115-5.135 6.115-1.645 0-2.935-.439-3.869-1.316-.889-.878-1.334-2.477-1.334-4.799v-13.248c0-2.321.445-3.921 1.334-4.799.934-.878 2.224-1.316 3.869-1.316zm-43.113 75.402c-3.335 0-5.937.651-7.805 1.953-1.823 1.302-2.734 3.666-2.734 7.092 0 3.397.865 5.747 2.6 7.049 1.779 1.302 4.026 1.953 6.738 1.953 2.757 0 4.868-.523 6.336-1.57v5.52c0 2.378-.467 4.02-1.4 4.926-.889.878-2.179 1.316-3.869 1.316-1.645 0-2.889-.367-3.734-1.104-.845-.764-1.445-2.209-1.801-4.332l-4.67.426c.445 2.916 1.511 4.94 3.201 6.072s4.114 1.699 7.271 1.699c3.202 0 5.692-.695 7.471-2.082 1.823-1.387 2.734-3.934 2.734-7.643v-12.189c0-3.454-.889-5.831-2.668-7.133s-4.335-1.953-7.67-1.953zm330.646.906c-3.068 0-5.427.565-7.072 1.697s-2.668 3.156-3.068 6.072l4.736.469c.222-2.123.757-3.582 1.602-4.375.889-.821 2.112-1.23 3.668-1.23 3.157 0 4.736 1.669 4.736 5.01v1.273c0 1.84-.445 3.144-1.334 3.908-.889.736-2.112 1.133-3.668 1.189h-3.203v2.633h3.135c1.823 0 3.203.395 4.137 1.188.978.764 1.467 2.238 1.467 4.418v1.188c0 3.199-1.822 4.799-5.469 4.799-1.601 0-2.825-.367-3.67-1.104-.8-.764-1.333-2.209-1.6-4.332l-4.736.426c.356 2.916 1.357 4.94 3.002 6.072s4.046 1.699 7.203 1.699c3.202 0 5.76-.623 7.672-1.869 1.957-1.246 2.934-3.398 2.934-6.455 0-4.02-1.533-6.611-4.602-7.771 2.579-1.132 3.869-3.312 3.869-6.539s-.867-5.421-2.602-6.582c-1.69-1.189-4.068-1.783-7.137-1.783zm-330.848 1.727c3.558 0 5.336 1.953 5.336 5.859v1.402c-.044 2.067-.533 3.509-1.467 4.33-.934.793-2.202 1.189-3.803 1.189-3.558 0-5.336-1.953-5.336-5.859v-1.062c0-3.907 1.756-5.859 5.27-5.859zm308.586 79.564l-11.205 21.146v1.615h14.941v6.963h5.27v-6.963h2.734v-2.719h-2.734v-20.043h-9.006zm-284.557 1.176c-3.113 0-5.513.565-7.203 1.697-1.645 1.104-2.469 3.128-2.469 6.072 0 3.85 1.601 6.258 4.803 7.221-3.824.906-5.736 3.497-5.736 7.771 0 3.114.911 5.264 2.734 6.453s4.447 1.785 7.871 1.785 6.048-.596 7.871-1.785c1.868-1.189 2.803-3.339 2.803-6.453 0-4.19-1.934-6.781-5.803-7.771 3.291-.934 4.936-3.342 4.936-7.221 0-2.944-.845-4.968-2.535-6.072-1.69-1.132-4.114-1.697-7.271-1.697zm288.293 1.201v17.666h-9.473l9.473-17.666zm-288.293 1.432c1.512 0 2.668.338 3.469 1.018s1.201 1.939 1.201 3.779v1.529c0 1.84-.401 3.1-1.201 3.779s-1.957 1.02-3.469 1.02c-1.467 0-2.6-.34-3.4-1.02s-1.201-1.939-1.201-3.779v-1.529c0-1.84.401-3.1 1.201-3.779s1.933-1.018 3.4-1.018zm0 13.715c1.734 0 3.07.397 4.004 1.189.934.764 1.4 2.152 1.4 4.162v1.316c0 2.01-.467 3.41-1.4 4.203-.934.764-2.27 1.148-4.004 1.148-1.69 0-3.002-.384-3.936-1.148-.934-.793-1.4-2.193-1.4-4.203V344.5c0-2.01.467-3.398 1.4-4.162.934-.793 2.246-1.189 3.936-1.189zm52.543 43.193v2.717h14.141l-10.939 27.008h5.404l10.805-28.111v-1.613h-19.41zm165.236.906v15.541h8.404c1.734 0 3.046.382 3.936 1.146.889.736 1.334 2.067 1.334 3.992v.936c0 2.265-.467 3.835-1.4 4.713-.889.849-2.135 1.273-3.736 1.273-1.556 0-2.735-.367-3.535-1.104s-1.335-2.166-1.602-4.289l-4.668.383c.356 2.888 1.357 4.912 3.002 6.072 1.645 1.132 4.002 1.699 7.07 1.699s5.491-.666 7.27-1.996c1.823-1.359 2.736-3.695 2.736-7.008 0-3.341-.889-5.577-2.668-6.709-1.779-1.161-4.359-1.742-7.738-1.742h-3.535v-10.191h13.141v-2.717h-18.01zm-75.598 21.113c-3.024 0-5.448.708-7.271 2.123-1.823 1.387-2.734 3.921-2.734 7.602v12.188c0 3.454.889 5.831 2.668 7.133 1.823 1.302 4.403 1.955 7.738 1.955s5.915-.653 7.738-1.955 2.734-3.652 2.734-7.049c0-3.426-.867-5.79-2.602-7.092s-3.957-1.953-6.67-1.953-4.826.523-6.338 1.57v-5.52c0-2.378.445-4.005 1.334-4.883.889-.906 2.092-1.359 3.604-1.359 1.556 0 2.711.353 3.467 1.061.8.708 1.291 1.982 1.469 3.822l4.869-.764c-.356-2.576-1.357-4.361-3.002-5.352-1.601-1.019-3.936-1.527-7.004-1.527zm.533 15.584c3.513 0 5.27 1.953 5.27 5.859v1.063c0 3.907-1.756 5.861-5.27 5.861s-5.27-1.954-5.27-5.861v-1.4c.044-3.68 1.801-5.521 5.27-5.521z" class="C"/><path d="M234.205 48.643a.5.5 0 0 0-.443.549l1.254 11.936a.5.5 0 0 0 .549.443.5.5 0 0 0 .445-.549l-1.254-11.936a.5.5 0 0 0-.551-.443zm43.59 0a.5.5 0 0 0-.551.445l-1.254 11.934a.5.5 0 0 0 .445.549.5.5 0 0 0 .549-.445l1.254-11.934a.5.5 0 0 0-.443-.549zm-64.949 3.41a.5.5 0 0 0-.375.08.5.5 0 0 0-.205.516l2.494 11.738a.5.5 0 1 0 .979-.207l-2.494-11.74a.5.5 0 0 0-.398-.387zm86.309 0a.5.5 0 0 0-.398.389l-2.494 11.738a.5.5 0 1 0 .979.207l2.494-11.738a.5.5 0 0 0-.58-.596zm-107.391 5.629a.5.5 0 0 0-.365.117.5.5 0 0 0-.15.537l3.709 11.412a.5.5 0 1 0 .951-.311l-3.709-11.412a.5.5 0 0 0-.436-.344zm128.473 0a.5.5 0 0 0-.436.344l-3.709 11.412a.5.5 0 1 0 .951.311l3.709-11.414a.5.5 0 0 0-.516-.652zm-148.85 7.801a.5.5 0 0 0-.445.705l4.881 10.961a.5.5 0 1 0 .914-.408l-4.881-10.961a.5.5 0 0 0-.469-.297zm169.229 0a.5.5 0 0 0-.471.297l-4.881 10.963a.5.5 0 1 0 .914.406l4.881-10.963a.5.5 0 0 0-.443-.703zM133.818 87.23a.5.5 0 0 0-.504.232.5.5 0 0 0 .022.555l7.055 9.709a.5.5 0 0 0 .697.111.5.5 0 0 0 .111-.699l-7.055-9.709a.5.5 0 0 0-.326-.199zm244.363 0a.5.5 0 0 0-.328.201l-7.053 9.707a.5.5 0 1 0 .811.586l7.053-9.707a.5.5 0 0 0-.482-.787zm-261.336 13.695a.5.5 0 0 0-.477.285.5.5 0 0 0 .08.549l8.029 8.918a.5.5 0 0 0 .744-.668l-8.031-8.92a.5.5 0 0 0-.346-.164zm278.357 0a.5.5 0 0 0-.396.166l-8.029 8.918a.5.5 0 0 0 .744.668l8.029-8.918a.5.5 0 0 0-.205-.807.5.5 0 0 0-.143-.027zM101.4 116.322a.5.5 0 0 0-.447.332.5.5 0 0 0 .139.539l8.918 8.029a.5.5 0 0 0 .668-.744l-8.918-8.029a.5.5 0 0 0-.359-.127zm309.102.004a.5.5 0 0 0-.262.123l-8.918 8.029a.5.5 0 0 0 .668.744l8.92-8.031a.5.5 0 0 0-.121-.822.5.5 0 0 0-.287-.043zm13.754 16.914a.5.5 0 0 0-.273.096l-9.709 7.055a.5.5 0 0 0-.111.697.5.5 0 0 0 .699.111l9.709-7.055a.5.5 0 0 0-.033-.83.5.5 0 0 0-.281-.074zm-336.609.008a.5.5 0 0 0-.215.898l9.707 7.053a.5.5 0 1 0 .586-.811l-9.707-7.053a.5.5 0 0 0-.371-.088zm-21.65 37.65a.5.5 0 0 0-.471.297.5.5 0 0 0 .254.66l10.963 4.881a.5.5 0 1 0 .406-.914l-10.963-4.881a.5.5 0 0 0-.189-.043zm380.008 0a.5.5 0 0 0-.191.043l-10.961 4.881a.5.5 0 1 0 .408.914l10.961-4.881a.5.5 0 0 0-.023-.924.5.5 0 0 0-.193-.033zm7.805 20.326a.5.5 0 0 0-.145.023l-11.412 3.709a.5.5 0 1 0 .311.951l11.412-3.709a.5.5 0 0 0 .227-.801.5.5 0 0 0-.393-.174zm-395.668.002a.5.5 0 0 0-.459.537.5.5 0 0 0 .344.436l11.412 3.709a.5.5 0 0 0 .311-.951l-11.414-3.709a.5.5 0 0 0-.193-.022zm-5.687 21.037a.5.5 0 0 0-.4.582.5.5 0 0 0 .389.398l11.738 2.494a.5.5 0 1 0 .207-.979l-11.738-2.494a.5.5 0 0 0-.195-.002zm407.094 0a.5.5 0 0 0-.195.002l-11.738 2.494a.5.5 0 1 0 .207.979l11.74-2.494a.5.5 0 0 0 .307-.773.5.5 0 0 0-.32-.207zM49.191 233.762a.5.5 0 0 0-.549.443.5.5 0 0 0 .445.551l11.934 1.254a.5.5 0 0 0 .549-.445.5.5 0 0 0-.445-.549zm413.617 0l-11.936 1.254a.5.5 0 0 0-.443.549.5.5 0 0 0 .549.445l11.936-1.254a.5.5 0 0 0 .387-.736.5.5 0 0 0-.492-.258zM61.021 275.99l-11.936 1.254a.5.5 0 0 0-.387.736.5.5 0 0 0 .492.258l11.936-1.254a.5.5 0 0 0 .443-.549.5.5 0 0 0-.549-.445zm389.957 0a.5.5 0 0 0-.549.445.5.5 0 0 0 .445.549l11.934 1.254a.5.5 0 0 0 .549-.443.5.5 0 0 0-.445-.551zM64.375 296.26a.5.5 0 0 0-.195.002l-11.74 2.494a.5.5 0 0 0-.307.773.5.5 0 0 0 .516.205l11.738-2.494a.5.5 0 0 0-.012-.98zm383.25 0a.5.5 0 0 0-.012.98l11.738 2.494a.5.5 0 0 0 .596-.58.5.5 0 0 0-.389-.398l-11.738-2.494a.5.5 0 0 0-.195-.002zM69.631 316.068a.5.5 0 0 0-.193.023l-11.412 3.709a.5.5 0 0 0-.227.801.5.5 0 0 0 .537.15l11.412-3.709a.5.5 0 0 0-.117-.975zm372.738 0a.5.5 0 0 0-.117.975l11.414 3.709a.5.5 0 0 0 .652-.516.5.5 0 0 0-.344-.436l-11.412-3.709a.5.5 0 0 0-.193-.023zM76.93 335.221a.5.5 0 0 0-.189.043l-10.961 4.881a.5.5 0 0 0 .408.914l10.961-4.881a.5.5 0 0 0-.025-.924.5.5 0 0 0-.193-.033zm358.139 0a.5.5 0 0 0-.471.297.5.5 0 0 0 .254.66l10.963 4.881a.5.5 0 0 0 .703-.443.5.5 0 0 0-.297-.471l-10.963-4.881a.5.5 0 0 0-.189-.043zM97.51 370.711a.5.5 0 0 0-.371.09l-9.709 7.055a.5.5 0 0 0 .033.83.5.5 0 0 0 .555-.022l9.709-7.055a.5.5 0 0 0-.217-.898zm316.979.002a.5.5 0 0 0-.213.898l9.707 7.053a.5.5 0 1 0 .586-.811l-9.707-7.053a.5.5 0 0 0-.373-.088zM110.371 386.65a.5.5 0 0 0-.361.127l-8.92 8.031a.5.5 0 0 0 .121.822.5.5 0 0 0 .549-.08l8.918-8.029a.5.5 0 0 0-.307-.871zm291.26 0a.5.5 0 0 0-.309.871l8.918 8.029a.5.5 0 0 0 .807-.205.5.5 0 0 0-.139-.539l-8.918-8.029a.5.5 0 0 0-.359-.127zm-276.807 14.506a.5.5 0 0 0-.346.166l-8.029 8.918a.5.5 0 0 0 .205.807.5.5 0 0 0 .539-.139l8.029-8.918a.5.5 0 0 0-.398-.834zm262.352 0a.5.5 0 0 0-.398.834l8.031 8.92a.5.5 0 0 0 .822-.121.5.5 0 0 0-.08-.549l-8.029-8.918a.5.5 0 0 0-.346-.166zm-246.461 12.918a.5.5 0 0 0-.326.201l-7.053 9.707a.5.5 0 1 0 .811.586l7.053-9.707a.5.5 0 0 0-.484-.787zm230.568 0a.5.5 0 0 0-.482.787l7.055 9.709a.5.5 0 0 0 .83-.033.5.5 0 0 0-.022-.555l-7.055-9.709a.5.5 0 0 0-.326-.199zm-194.99 20.48a.5.5 0 0 0-.471.297l-4.881 10.963a.5.5 0 0 0 .443.703.5.5 0 0 0 .471-.297l4.881-10.963a.5.5 0 0 0-.443-.703zm159.414.002a.5.5 0 0 0-.443.703l4.881 10.961a.5.5 0 1 0 .914-.408l-4.881-10.961a.5.5 0 0 0-.471-.295zm-140.312 7.352a.5.5 0 0 0-.437.344l-3.709 11.414a.5.5 0 0 0 .516.652.5.5 0 0 0 .436-.344l3.709-11.412a.5.5 0 0 0-.514-.654zm121.213 0a.5.5 0 0 0-.516.654l3.709 11.412a.5.5 0 0 0 .801.227.5.5 0 0 0 .15-.537l-3.709-11.412a.5.5 0 0 0-.436-.344zm-101.449 5.318a.5.5 0 0 0-.398.387l-2.494 11.738a.5.5 0 0 0 .58.596.5.5 0 0 0 .398-.389l2.494-11.738a.5.5 0 0 0-.58-.594zm81.684 0a.5.5 0 0 0-.58.594l2.494 11.74a.5.5 0 0 0 .773.307.5.5 0 0 0 .205-.516l-2.494-11.738a.5.5 0 0 0-.398-.387zm-61.277 3.203a.5.5 0 0 0-.549.445l-1.254 11.934a.5.5 0 0 0 .443.549.5.5 0 0 0 .551-.445l1.254-11.934a.5.5 0 0 0-.445-.549zm40.871 0a.5.5 0 0 0-.445.549l1.254 11.936a.5.5 0 0 0 .736.387.5.5 0 0 0 .258-.492l-1.254-11.936a.5.5 0 0 0-.549-.443z" fill="#f63637" stroke="#fff" stroke-width=".2" class="D E"/><path d="M252 48l2 18h4l2-18zm-96.535 25.867l-6.93 4 10.732 14.588 3.465-2zm201.07 0l-7.268 16.588 3.465 2 10.732-14.588zM77.867 148.535l-4 6.93 16.588 7.268 2-3.465zm356.266 0l-14.588 10.732 2 3.465 16.588-7.268zM48 252v8l18-2v-4zm416 0l-18 2v4l18 2zM90.455 349.268l-16.588 7.268 4 6.93 14.588-10.732zm331.09 0l-2 3.465 14.588 10.732 4-6.93zm-262.277 70.277l-10.732 14.588 6.93 4 7.268-16.588zm193.465 0l-3.465 2 7.268 16.588 6.93-4zM254 446l-2 18h8l-2-18z" class="C"/><path style="mix-blend-mode:darken" d="M256 32A224 224 0 0 0 32 256a224 224 0 0 0 45.34 134.17 224 224 0 0 1-28.719-108.578 224 224 0 0 1 224-224 224 224 0 0 1 178.957 89.332C412.036 75.997 337.204 32.026 256 32z" transform="matrix(1.045538 0 0 1.046322 -11.592589 -11.617702)" opacity=".531" filter="url(#A)"/><use xlink:href="#E" style="mix-blend-mode:darken" opacity=".65" filter="url(#C)"/><g class="C"><path d="M252 296h8l2-40-2-132h-8l-2 132z"/><path d="M252 296h8l2-40-2-192h-8l-2 192z"/></g><use xlink:href="#E" fill="#ee1f35"/><path d="M 256 0 A 256 256 0 0 0 0 256 A 256 256 0 0 0 256 512 A 256 256 0 0 0 512 256 A 256 256 0 0 0 256 0 z M 256 32 A 224 224 0 0 1 480 256 A 224 224 0 0 1 256 480 A 224 224 0 0 1 32 256 A 224 224 0 0 1 256 32 z " fill="url(#B)" stroke="url(#linearGradient22304)" stroke-width=".2" class="D E"/><path d="M255.752 250.605a4.88 5.113 0 0 0-4.88 5.113 4.88 5.113 0 0 0 .685 2.592 4.88 5.113 0 0 1-.381-1.955 4.88 5.113 0 0 1 4.88-5.113 4.88 5.113 0 0 1 4.205 2.519 4.88 5.113 0 0 0-4.509-3.156z" opacity=".614" fill="#fff" filter="url(#D)"/></svg>